<svg xmlns="http://www.w3.org/2000/svg" viewBox="0 0 180 238.23"><defs><style>.cls-1,.cls-2,.cls-3{fill:#fff;}.cls-2,.cls-3{stroke:#000;stroke-linecap:round;stroke-width:6px;}.cls-2{stroke-linejoin:round;}.cls-3{stroke-miterlimit:10;}.cls-4{font-size:36px;}.cls-4,.cls-7{font-family:Chalkboard-Bold, Chalkboard;font-weight:700;}.cls-5{letter-spacing:-0.13em;}.cls-6{letter-spacing:-0.05em;}.cls-7{font-size:22px;}</style></defs><g id="图层_2" data-name="图层 2"><g id="图层_1-2" data-name="图层 1"><path class="cls-1" d="M90,177a86.6,86.6,0,0,1-68.27-33.06q-.69-.87-1.35-1.77A86.19,86.19,0,0,1,3,90a87,87,0,1,1,87,87Z"/><path d="M90,6A84,84,0,1,1,24.1,142.09c-.45-.57-.89-1.13-1.33-1.73A83.22,83.22,0,0,1,6,90,84.09,84.09,0,0,1,90,6m0-6A90,90,0,0,0,18,144c.46.62.93,1.23,1.41,1.84A90,90,0,1,0,90,0Z"/><path class="cls-2" d="M112.66,71.89a28.93,28.93,0,1,1-11.36-8.61"/><path class="cls-1" d="M90,177a87,87,0,0,1-56.58-20.92c-.41-.34-.77-.65-1.13-1a84.59,84.59,0,0,1-7.22-7.2c3.58-7.76,6.9-10.57,12.22-10.57,4.13,0,7.45,6,10.38,11.25,3.17,5.7,6.17,11.09,11.2,11.09a5.86,5.86,0,0,0,.94-.07c4.88-.7,7.71-6,11-12.19,3.88-7.32,8.28-15.61,16-15.61h.12c5.74.06,10.33,4.06,14.78,7.93,3.93,3.43,7.64,6.67,12.15,7.2A8.92,8.92,0,0,0,115,147c5.15,0,9.3-3.92,13.31-7.71,3.2-3,6.5-6.13,9.33-6.13h.18c5,.24,11.19,5.27,17.56,14.22l-.41.46A86.84,86.84,0,0,1,90,177Z"/><path d="M86.78,134.81h.09c4.63.05,8.62,3.52,12.83,7.19s8.35,7.27,13.78,7.92A12.62,12.62,0,0,0,115,150c6.34,0,11.14-4.53,15.37-8.53,2.24-2.11,5.63-5.31,7.31-5.3,3.62.17,8.65,4.22,13.84,11-1.6,1.72-3.26,3.37-5,4.93a84,84,0,0,1-111.17,1.68l0,0,0,0c-.33-.27-.66-.56-1-.88q-2.94-2.61-5.6-5.46c3-5.87,5.38-7,8.66-7,2.33,0,5.71,6.08,7.73,9.71,3.46,6.21,7,12.63,13.82,12.63a8.93,8.93,0,0,0,1.37-.1c6.39-.92,9.7-7.15,13.2-13.75,4.35-8.21,7.86-14,13.34-14m0-6c-16.07,0-19.13,26.65-27.39,27.83a3.12,3.12,0,0,1-.52,0c-7.23,0-10.87-22.31-21.53-22.34h-.05c-8.17,0-12.15,5.74-15.73,14.1a87.32,87.32,0,0,0,8.73,8.9c.39.35.78.69,1.18,1a89.94,89.94,0,0,0,125.74-8.51l.14-.16c.61-.69,1.22-1.39,1.81-2.1-6.1-9.05-13.73-17.05-21.2-17.41h-.33c-8,0-14.71,13.84-22.64,13.84a7,7,0,0,1-.8,0c-8.25-1-15.13-15-27.26-15.15Z"/><line class="cls-3" x1="30.68" y1="74.77" x2="34" y2="66.73"/><line class="cls-3" x1="59.26" y1="52.68" x2="67.87" y2="53.98"/><line class="cls-3" x1="39.27" y1="38.8" x2="47.96" y2="38.24"/><line class="cls-3" x1="79.62" y1="21.21" x2="84.2" y2="28.62"/><line class="cls-3" x1="103.52" y1="48.11" x2="110.62" y2="43.07"/><line class="cls-3" x1="130.37" y1="65.37" x2="138.76" y2="63.04"/><line class="cls-3" x1="155.04" y1="83.17" x2="157.36" y2="74.77"/><line class="cls-3" x1="158.81" y1="110.26" x2="151.27" y2="114.62"/><line class="cls-3" x1="142.4" y1="103.69" x2="135.93" y2="97.86"/><line class="cls-3" x1="135.93" y1="35.03" x2="128.8" y2="30.04"/><line class="cls-3" x1="39.86" y1="112.44" x2="47.37" y2="108.03"/><line class="cls-3" x1="19.79" y1="97.99" x2="26.49" y2="103.55"/><text class="cls-4" transform="translate(19.29 216.07)">DONU<tspan class="cls-5" x="99.53" y="0">T</tspan><tspan class="cls-6" x="116.07" y="0">.</tspan></text><text class="cls-7" transform="translate(150 190.43) rotate(90)">SG</text></g></g></svg>